<svg xmlns="http://www.w3.org/2000/svg" viewBox="0 0 234.87 97.937"><g data-name="Group 2463"><g data-name="Group 2382"><path data-name="Rectangle 1884" fill="#eedb1e" d="m60.51 62.513 12.478-12.478 12.479 12.478-12.479 12.478z"></path><path data-name="Rectangle 1885" fill="#eedb1e" d="m60.494 37.572 12.478-12.478 12.479 12.478L72.972 50.05z"></path><path data-name="Path 6024" d="M22.821 50.267c.016-.017.035-.03.051-.046L10.337 37.685a35.293 35.293 0 0 0 0 49.914L22.69 75.245a17.758 17.758 0 0 1 .131-24.978Z" fill="#69b874"></path><path data-name="Path 6025" d="M47.67 75.116c.017-.017.03-.035.046-.052L60.252 87.6a35.3 35.3 0 0 1-49.914 0l12.353-12.354a17.76 17.76 0 0 0 24.979-.13Z" fill="#d20a11"></path><g data-name="Group 2379"><path data-name="Path 6026" d="M10.338 37.685 22.876 50.22c.016-.016.029-.035.046-.051a17.759 17.759 0 0 1 24.979-.131l.027-.027a35.4 35.4 0 0 1-10.2-22.57 35.2 35.2 0 0 0-27.39 10.244Z" fill="#40bbf0"></path></g><g data-name="Group 2380"><path data-name="Path 6027" d="M48.024 0 60.56 12.536c-.016.016-.035.029-.052.046a17.76 17.76 0 0 0-.13 24.979l-.028.027a35.391 35.391 0 0 0-22.57-10.2A35.206 35.206 0 0 1 48.024 0Z" fill="#40bbf0"></path></g><g data-name="Group 2381"><path data-name="Path 6028" d="M47.976 50.09A35.4 35.4 0 0 1 37.77 27.448a36.016 36.016 0 0 1 22.644 10.124l12.533 12.536-12.469 12.47Z" fill="#002a44"></path></g></g><g data-name="Group 2383" fill="#002a44"><path data-name="Path 6029" d="M100.019 50.035v-.051a8.975 8.975 0 0 1 9.208-9.132 9.112 9.112 0 0 1 6.963 2.724l-2.472 2.851a6.518 6.518 0 0 0-4.516-1.993 5.232 5.232 0 0 0-5.122 5.5v.05a5.245 5.245 0 0 0 5.122 5.55 6.371 6.371 0 0 0 4.641-2.069l2.472 2.5a9.023 9.023 0 0 1-7.24 3.153 8.914 8.914 0 0 1-9.056-9.083Z"></path><path data-name="Path 6030" d="M121.157 50.035v-.051a9.389 9.389 0 0 1 18.77-.05v.05a9.389 9.389 0 0 1-18.77.051Zm14.708 0v-.051a5.366 5.366 0 0 0-5.348-5.55 5.281 5.281 0 0 0-5.3 5.5v.05a5.365 5.365 0 0 0 5.348 5.55 5.281 5.281 0 0 0 5.3-5.499Z"></path><path data-name="Path 6031" d="M145.902 41.154h4.187l4.642 7.468 4.642-7.468h4.187v17.66h-3.859v-11.53l-4.97 7.543h-.1l-4.919-7.467v11.454h-3.809Z"></path><path data-name="Path 6032" d="M170.319 41.154h4.187l4.643 7.468 4.641-7.468h4.188v17.66h-3.86v-11.53l-4.969 7.543h-.1l-4.919-7.467v11.454h-3.809Z"></path><path data-name="Path 6033" d="M193.958 50.035v-.051a9.389 9.389 0 0 1 18.769-.05v.05a9.389 9.389 0 0 1-18.769.051Zm14.707 0v-.051a5.365 5.365 0 0 0-5.348-5.55 5.281 5.281 0 0 0-5.3 5.5v.05a5.364 5.364 0 0 0 5.347 5.55 5.281 5.281 0 0 0 5.294-5.499Z"></path><path data-name="Path 6034" d="M218.699 41.154h3.586l8.274 10.874V41.154h3.835v17.66h-3.309l-8.552-11.226v11.226h-3.834Z"></path><path data-name="Path 6035" d="M100.801 66.993h13.447v3.532h-9.563v3.76h8.431v3.532h-8.427v6.837h-3.884Z"></path><path data-name="Path 6036" d="M119.593 77.088V66.993h3.885v9.99c0 2.877 1.438 4.364 3.809 4.364s3.81-1.438 3.81-4.238V66.993h3.885v9.965c0 5.348-3 7.972-7.745 7.972s-7.644-2.646-7.644-7.842Z"></path><path data-name="Path 6037" d="M145.576 70.579h-5.374v-3.586h14.632v3.583h-5.373v14.076h-3.885Z"></path><path data-name="Path 6038" d="M160.053 77.088V66.993h3.885v9.99c0 2.877 1.438 4.364 3.809 4.364s3.813-1.434 3.813-4.235V66.993h3.885v9.965c0 5.348-3 7.972-7.744 7.972s-7.648-2.646-7.648-7.842Z"></path><path data-name="Path 6039" d="M181.922 66.993h8.073a7.035 7.035 0 0 1 5.146 1.792 5.543 5.543 0 0 1 1.513 4.036v.05a5.485 5.485 0 0 1-3.784 5.475l4.314 6.307h-4.541l-3.784-5.651h-3.053v5.651h-3.884Zm7.821 8.578c1.892 0 2.977-1.009 2.977-2.5v-.051c0-1.665-1.16-2.522-3.052-2.522h-3.861v5.071Z"></path><path data-name="Path 6040" d="M202.682 66.993h13.32v3.457h-9.461v3.582h8.325v3.461h-8.325v3.709h9.587v3.456h-13.446Z"></path><path data-name="Path 6041" d="m220.893 82.083 2.3-2.75a8.1 8.1 0 0 0 5.273 2.144c1.589 0 2.548-.63 2.548-1.665v-.05c0-.985-.606-1.488-3.557-2.245-3.557-.908-5.853-1.892-5.853-5.4v-.048c0-3.2 2.573-5.323 6.181-5.323a10.225 10.225 0 0 1 6.559 2.245l-2.018 2.927a8.288 8.288 0 0 0-4.592-1.741c-1.488 0-2.271.681-2.271 1.539v.052c0 1.16.757 1.539 3.81 2.32 3.582.934 5.6 2.22 5.6 5.3v.051c0 3.507-2.674 5.474-6.483 5.474a11.238 11.238 0 0 1-7.497-2.83Z"></path></g></g></svg>
