<?xml version="1.0" encoding="UTF-8"?>
<svg xmlns="http://www.w3.org/2000/svg" xmlns:xlink="http://www.w3.org/1999/xlink" width="220px" height="98px" viewBox="0 0 220 98" version="1.1"><title>atom/logo/full/white</title><g id="atom/logo/full/white" stroke="none" stroke-width="1" fill="none" fill-rule="evenodd"><path d="M12.1149979,76.5818685 C12.6702645,77.0662 13.1076281,77.6709136 13.3937454,78.3499172 C13.6798627,79.0289207 13.8071816,79.7642891 13.7659988,80.4999635 C13.7888192,81.1543906 13.6741454,81.8063256 13.4293823,82.4136836 C13.1846192,83.0210415 12.8152102,83.5703221 12.3450012,84.0260505 C11.2604061,84.9983801 9.87562811,85.5700851 8.42099762,85.6460851 L13.7910004,92.635253 L9.58000183,92.635253 L4.49700165,85.6960894 L3.47499847,85.6960894 L3.47499847,92.635253 L0,92.635253 L0,75.1938342 L7.375,75.1938342 C9.06950104,75.0807085 10.7491642,75.5725723 12.1149979,76.5818685 Z M3.47499847,82.6680156 L7.31199646,82.6680156 C9.23066318,82.6680156 10.1899948,81.9453321 10.1899948,80.4999635 C10.1899948,79.0959292 9.23066318,78.3942421 7.31199646,78.3949088 L3.47499847,78.3949088 L3.47499847,82.6680156 Z M25.7309952,82.0019995 C26.8491684,83.2580106 27.4345014,84.8999804 27.362999,86.5801065 C27.3660948,86.9477657 27.345046,87.3152377 27.2999954,87.6801394 L18.7419963,87.6801394 C18.8431637,88.4206341 19.2243102,89.0941806 19.8069987,89.5621819 C20.3983516,89.9894458 21.114847,90.2082347 21.8440013,90.1841988 C22.9684525,90.182987 24.0537545,89.7711889 24.8959961,89.0261734 L26.802002,91.1192191 C25.385222,92.3667148 23.5433317,93.0222214 21.6569972,92.9502651 C20.8240574,92.9829229 19.9932263,92.8450742 19.2154613,92.5451725 C18.4376962,92.2452708 17.7293915,91.7896354 17.1339947,91.2062192 C16.5477856,90.6027381 16.0908579,89.8860051 15.7911602,89.0998599 C15.4914626,88.3137147 15.3553002,87.4746875 15.3909985,86.6341086 C15.3555404,85.7910364 15.4869304,84.9492632 15.7776333,84.1571043 C16.0683362,83.3649453 16.512628,82.6380019 17.0849987,82.0179987 C17.6535527,81.4280874 18.3403061,80.9649304 19.1002803,80.6588653 C19.8602545,80.3528002 20.6763023,80.2107301 21.4949946,80.2419545 C22.2860835,80.213569 23.0739962,80.3561014 23.8050079,80.6598342 C24.5360197,80.963567 25.1929416,81.4213601 25.7309952,82.0019995 Z M19.660995,83.66904 C19.1765761,84.1527981 18.8609796,84.7798125 18.7610011,85.4570856 L24.1059952,85.4570856 C24.0078052,84.7775049 23.6920366,84.14804 23.2060008,83.6630355 C22.7316395,83.2380466 22.1103774,83.0145806 21.4739985,83.0400268 C20.8110287,83.007107 20.1611248,83.232586 19.660995,83.66904 Z M34.7320023,82.9420184 C34.2533208,82.9129829 33.7757167,83.0142491 33.3499985,83.2350325 C33.2056454,83.3125942 33.0852101,83.4280934 33.0016785,83.5690784 C32.9181469,83.7100634 32.8746904,83.8711788 32.8759995,84.0350474 C32.8704765,84.1914653 32.9188419,84.3450322 33.0130005,84.4700553 C33.133124,84.6057685 33.2885586,84.7054742 33.461998,84.7580644 C33.657978,84.8288583 33.8584113,84.8866559 34.0619965,84.9310728 C34.2529965,84.9730738 34.5140007,85.0180759 34.8460007,85.0680771 L35.9179993,85.2310755 C38.6339993,85.6457523 39.9919968,86.8497816 39.9919968,88.8431636 C40.0103083,89.423795 39.8858585,90.0000512 39.6295624,90.5213738 C39.3732662,91.0426963 38.9929541,91.4931606 38.5219955,91.833242 C37.3210133,92.6367491 35.8905354,93.026149 34.447998,92.9422626 C32.5543789,93.0341635 30.678676,92.538158 29.0779953,91.5222298 L30.3610001,89.0591723 C31.580175,89.8602766 33.0134971,90.2730927 34.4720001,90.2431993 C35.9586668,90.2431993 36.7019958,89.8651873 36.7019958,89.1091689 C36.6978893,88.9594512 36.6510983,88.814024 36.5671234,88.6900074 C36.4831485,88.5659908 36.3654866,88.4685509 36.2279968,88.4091549 C35.7439821,88.1872335 35.2260956,88.048289 34.6959991,87.9981413 L33.711998,87.8611445 C30.9299979,87.471135 29.5386687,86.2501035 29.538002,84.1980534 C29.513851,83.6416048 29.6241045,83.0875265 29.8594437,82.5827186 C30.0947829,82.0779107 30.4482777,81.6372313 30.8899994,81.2979812 C31.9869392,80.5427015 33.3044795,80.1749502 34.6339951,80.2529575 C36.3824879,80.2308461 38.1113575,80.6232308 39.6790009,81.3979821 L38.5789948,83.9270431 C37.3872118,83.3131512 36.0721543,82.9764283 34.7320023,82.9420184 Z M52.9609985,82.0519966 C54.1541229,83.2620973 54.8230057,84.8932123 54.8230057,86.5926118 C54.8230057,88.2920114 54.1541229,89.9231187 52.9609985,91.1332194 C51.6857708,92.2996046 50.0201764,92.9464503 48.2919998,92.9464503 C46.5638232,92.9464503 44.8982289,92.2996046 43.6230011,91.1332194 C42.4334598,89.92124 41.7670288,88.2908379 41.7670288,86.5926118 C41.7670288,84.8943858 42.4334598,83.263976 43.6230011,82.0519966 C44.8980174,80.8851852 46.5636916,80.2380638 48.2919998,80.2380638 C50.020308,80.2380638 51.6859822,80.8851852 52.9609985,82.0519966 Z M45.9899979,84.2000516 C45.4040743,84.8590886 45.0804138,85.710262 45.0804138,86.5921083 C45.0804138,87.4739546 45.4040743,88.325128 45.9899979,88.9841649 C46.6050931,89.5844862 47.4305184,89.9205281 48.2900009,89.9205281 C49.1494834,89.9205281 49.9749011,89.5844862 50.5899963,88.9841649 C51.1759199,88.325128 51.4995804,87.4739546 51.4995804,86.5921083 C51.4995804,85.710262 51.1759199,84.8590886 50.5899963,84.2000516 C49.9740445,83.6013766 49.1489486,83.266458 48.2900009,83.266458 C47.4310533,83.266458 46.6059497,83.6013766 45.9899979,84.2000516 Z M68.3329954,89.944195 C68.0603919,90.61127 67.6255888,91.1997384 67.0680037,91.6562348 C66.5302797,92.0861858 65.9181091,92.4136298 65.2620039,92.6222541 C64.5587893,92.8434989 63.8251668,92.9528409 63.0880003,92.9462672 C62.4965153,92.9487654 61.9067954,92.8816307 61.3310039,92.7462577 C60.7812083,92.616297 60.2542395,92.4038901 59.7680004,92.1162451 C59.290757,91.8383938 58.8651578,91.4801086 58.5100048,91.0572211 C58.1356829,90.6005504 57.8522413,90.0764389 57.6749981,89.5131848 C57.4642791,88.8594743 57.3609386,88.1759208 57.3689983,87.4891333 L57.3689983,80.5609629 L60.6210048,80.5609629 L60.6210048,87.2021238 C60.5905295,87.571313 60.6343846,87.9428702 60.7499797,88.294817 C60.8655749,88.6467639 61.0505599,88.971959 61.2940013,89.2511773 C61.7926528,89.6814896 62.4293556,89.9182316 63.0880003,89.9182316 C63.746645,89.9182316 64.3833476,89.6814896 64.881999,89.2511773 C65.125248,88.9718366 65.3101157,88.6466247 65.4257002,88.2947102 C65.5412847,87.9427958 65.5852509,87.5712975 65.5550032,87.2021238 L65.5550032,80.5609629 L68.7939939,80.5609629 L68.7939939,87.4891333 C68.8094584,88.330371 68.6525734,89.1658732 68.3329954,89.944195 Z M80.348999,80.4999666 L79.8629913,83.7270427 C79.2409669,83.4617864 78.5701304,83.3302706 77.8939972,83.3410317 C77.5540868,83.3243638 77.2143832,83.3779222 76.8960876,83.4983613 C76.5777921,83.6188003 76.2877274,83.8035407 76.0439911,84.0410533 C75.8010147,84.3137637 75.6147777,84.6321266 75.4961395,84.9775765 C75.3775013,85.3230264 75.3288429,85.6886399 75.3529968,86.0530956 L75.3529968,92.6312589 L72.1009979,92.6312589 L72.1009979,80.5619645 L75.253006,80.5619645 L75.253006,81.8829959 C75.6271419,81.3361797 76.1377355,80.896688 76.7341461,80.6081235 C77.3305568,80.319559 77.99205,80.191954 78.6529999,80.2379591 C79.2292227,80.226675 79.8030427,80.3153227 80.348999,80.4999666 Z M90.5910034,80.8299691 C91.4083167,81.2176616 92.1198332,81.7971235 92.6649933,82.5190133 L90.322998,84.4740628 C90.0036623,84.1009813 89.608469,83.800261 89.1637573,83.5919536 C88.7190456,83.3836461 88.235039,83.2725378 87.7440033,83.2660331 C87.339965,83.2581467 86.9388603,83.3362773 86.5673218,83.495241 C86.1957833,83.6542047 85.862308,83.8903638 85.5890045,84.1880527 C85.0265851,84.8627945 84.7180607,85.7131195 84.7169647,86.5915308 C84.7158688,87.4699421 85.0222585,88.3210254 85.5829926,88.9971686 C85.8548557,89.2950593 86.187225,89.5314317 86.5578461,89.6904457 C86.9284672,89.8494596 87.3287874,89.9274494 87.7319946,89.9191958 C88.2320924,89.9158622 88.7256371,89.8051127 89.1792145,89.5944503 C89.6327919,89.3837879 90.035811,89.0781298 90.3609924,88.6981653 L92.6779938,90.6792164 C92.109486,91.4163341 91.3728781,92.0067294 90.5296783,92.4011136 C89.6864786,92.7954978 88.7611604,92.9824226 87.8309937,92.94627 C86.9776047,92.9765564 86.1268677,92.83462 85.3295288,92.528932 C84.53219,92.2232439 83.8046016,91.7600637 83.1901703,91.1670366 C82.575739,90.5740094 82.0870476,89.8632866 81.7532806,89.0772715 C81.4195136,88.2912565 81.2474976,87.4460576 81.2474976,86.5921107 C81.2474976,85.7381637 81.4195136,84.8929653 81.7532806,84.1069503 C82.0870476,83.3209352 82.575739,82.6102124 83.1901703,82.0171852 C83.8046016,81.4241581 84.53219,80.9609856 85.3295288,80.6552975 C86.1268677,80.3496094 86.9776047,80.2076731 87.8309937,80.2379594 C88.7838258,80.2250314 89.7272911,80.4273959 90.5910034,80.8299691 Z M104.360987,82.0019964 C105.47916,83.2580075 106.064493,84.8999776 105.99299,86.5801036 C105.996384,86.9477401 105.975676,87.3152098 105.930994,87.6801365 L97.3719885,87.6801365 C97.4731559,88.4206313 97.8543026,89.0941768 98.4369912,89.5621781 C99.0283781,89.9893733 99.7448496,90.2081548 100.473994,90.1841949 C101.598479,90.1831676 102.683851,89.7713456 103.525995,89.0261696 L105.431986,91.1192153 C104.015513,92.3665585 102.173998,93.0220615 100.287989,92.9502612 C99.4550223,92.9831555 98.6241222,92.8454191 97.8463233,92.5455044 C97.0685243,92.2455896 96.360252,91.7898249 95.7649939,91.2062154 C95.1784601,90.6029209 94.7212467,89.886244 94.421366,89.1000697 C94.1214853,88.3138953 93.9852468,87.4747753 94.0209906,86.6341058 C93.9857524,85.7910569 94.1172466,84.949344 94.4079383,84.1572156 C94.6986299,83.3650872 95.1428029,82.6381231 95.7149909,82.0179956 C96.2836601,81.4282373 96.9704408,80.965183 97.730387,80.6591292 C98.4903331,80.3530754 99.3063254,80.2109171 100.124995,80.2419514 C100.916084,80.2135659 101.703995,80.3560983 102.435007,80.6598311 C103.166019,80.9635639 103.822933,81.421357 104.360987,82.0019964 Z M98.2879891,83.6710358 C97.803219,84.1545397 97.4875601,84.7816779 97.387995,85.4590817 L102.732996,85.4590817 C102.634806,84.779501 102.319023,84.1500434 101.832987,83.665039 C101.358516,83.2402344 100.737339,83.0167887 100.100993,83.0420227 C99.437246,83.0075541 98.786087,83.2323824 98.2849984,83.6690369 L98.2879891,83.6710358 Z M112.824005,83.4530299 L112.824005,92.635253 L109.571991,92.635253 L109.571991,83.4530299 L107.317001,83.4530299 L107.317001,80.5619605 L109.571991,80.5619605 L109.571991,79.0689279 C109.503285,77.8263188 109.903729,76.6032155 110.694,75.6418425 C111.103108,75.2111148 111.601625,74.8752631 112.15448,74.6579165 C112.707335,74.44057 113.301096,74.3470051 113.893997,74.3838086 C115.211976,74.36853 116.50462,74.7462713 117.606995,75.4688341 L116.306992,77.9978952 C115.680156,77.6264844 114.967491,77.4245343 114.238998,77.4118824 C113.291665,77.4118824 112.818334,77.9765628 112.819,79.1059237 L112.819,80.56296 L116.569,80.56296 L116.569,83.4540293 L112.824005,83.4530299 Z M129.712996,89.944195 C129.440751,90.6112033 129.006286,91.1996784 128.449004,91.6562348 C127.911043,92.0863886 127.298499,92.4138473 126.641998,92.6222541 C125.938798,92.8435637 125.205173,92.9529072 124.468002,92.9462672 C123.876847,92.9487611 123.287458,92.881626 122.712005,92.7462577 C122.161864,92.6163927 121.634544,92.4039832 121.147995,92.1162451 C120.670936,91.8381309 120.245379,91.4798814 119.889999,91.0572211 C119.516412,90.6000574 119.23305,90.0760937 119.054992,89.5131848 C118.846805,88.8590237 118.745516,88.1755594 118.755004,87.4891333 L118.755004,80.5609629 L122.005996,80.5609629 L122.005996,87.2021238 C121.975749,87.5712975 122.019715,87.9427958 122.135299,88.2947102 C122.250884,88.6466247 122.435751,88.9718366 122.679,89.2511773 C123.177652,89.6814896 123.814347,89.9182316 124.472991,89.9182316 C125.131636,89.9182316 125.768346,89.6814896 126.266998,89.2511773 C126.510439,88.971959 126.695424,88.6467639 126.811019,88.294817 C126.926614,87.9428702 126.970477,87.571313 126.940001,87.2021238 L126.940001,80.5609629 L130.179,80.5609629 L130.179,87.4891333 C130.193362,88.330759 130.03475,89.1663713 129.712996,89.944195 Z M133.481003,92.6352549 L133.481003,74.6948226 L136.733002,74.6948226 L136.733002,92.6352549 L133.481003,92.6352549 Z M140.143005,92.6352549 L140.143005,74.6948226 L143.395004,74.6948226 L143.395004,92.6352549 L140.143005,92.6352549 Z M146.244995,97.6693819 L150.468994,90.0691981 L145.261002,80.5629619 L148.949005,80.5629619 L152.261002,86.7691145 L155.473999,80.5639614 L159.037994,80.5639614 L149.807999,97.6693819 L146.244995,97.6693819 Z" id="Combined-Shape" fill="#FFFFFF" fill-rule="nonzero"/><path d="M196.26099,14.7423582 C196.26099,17.6581214 195.396395,20.5084054 193.776524,22.9327741 C192.156652,25.3571427 189.854275,27.2467111 187.160526,28.3625253 C184.466778,29.4783396 181.502647,29.7702845 178.642979,29.2014473 C175.783311,28.6326101 173.156543,27.2285398 171.094837,25.1667839 C169.033132,23.1050281 167.629084,20.4781885 167.060261,17.6184507 C166.491437,14.758713 166.783387,11.7945169 167.899174,9.10070299 C169.014961,6.40688906 170.904475,4.10444793 173.328785,2.48453669 C175.753094,0.864625442 178.603309,0 181.519001,0 C185.428823,0 189.178504,1.55320952 191.943165,4.31793826 C194.707826,7.082667 196.26099,10.8324414 196.26099,14.7423582 Z" id="Path-520" fill="#FFD100" fill-rule="nonzero"/><path d="M161.121246,50.0967372 C161.121246,58.2386552 154.520811,64.8391503 146.378967,64.8391503 C138.237122,64.8391503 131.637021,58.238989 131.637021,50.097071 C131.637021,41.9551531 138.237456,35.3546579 146.379301,35.3546579 C154.521145,35.3546579 161.121246,41.9548192 161.121246,50.0967372 Z" id="Ellipse-43" fill="#00AFEF" fill-rule="nonzero" transform="translate(146.3791, 50.0969) rotate(-34.099) translate(-146.3791, -50.0969)"/><path d="M218.131016,59.7054548 C218.131016,64.6934662 216.651915,69.5694625 213.880772,73.7168286 C211.109628,77.8641947 207.170885,81.096655 202.562656,83.0054386 C197.954428,84.9142222 192.883689,85.4135956 187.991655,84.4404101 C183.099621,83.4672246 178.60602,81.0651924 175.079119,77.5380659 C171.552219,74.0109394 169.15043,69.5171393 168.177462,64.6249473 C167.204494,59.7327553 167.704044,54.6619033 169.612963,50.0536385 C171.521883,45.4453738 174.754423,41.5066755 178.901797,38.7356287 C183.049172,35.964582 187.925107,34.4858417 192.912996,34.4858417 C196.224792,34.4858417 199.504194,35.1379559 202.563908,36.4053259 C205.623621,37.6726959 208.40371,39.5303669 210.745457,41.8722638 C213.087204,44.2141607 214.944731,46.9944108 216.211948,50.0542489 C217.479166,53.114087 218.131016,56.393578 218.131016,59.7054548 Z" id="Path-521" fill="#00AA4F" fill-rule="nonzero"/><path d="M206.127991,41.1820061 C205.912901,41.1168338 205.680748,41.139605 205.482422,41.2453316 C205.284096,41.3510582 205.135796,41.5311121 205.070007,41.746019 C205.070007,41.746019 203.896993,44.6840904 202.886993,43.9200718 C202.023993,43.2690559 203.573997,41.3370072 204.046997,40.7839937 C204.176124,40.6788117 204.270851,40.53742 204.319,40.3779856 C204.351371,40.2714153 204.362437,40.1595124 204.351563,40.0486662 C204.340688,39.93782 204.30808,39.8302015 204.255615,39.7319547 C204.20315,39.6337079 204.131844,39.5467564 204.045776,39.4760662 C203.959708,39.405376 203.860566,39.352329 203.753998,39.3199573 C203.64743,39.2875857 203.535526,39.2765229 203.424683,39.2873981 C203.313839,39.2982733 203.206216,39.3308737 203.107971,39.3833401 C203.009727,39.4358065 202.9228,39.5071102 202.852112,39.5931802 C202.781423,39.6792503 202.728355,39.7784032 202.695984,39.8849736 C202.672401,39.9634418 202.660939,40.0450511 202.661987,40.12698 L202.64801,40.12698 C202.338662,42.3643675 201.889321,43.4527272 201.299988,43.3920591 C200.453988,43.2860565 200.364663,42.1350287 201.032013,39.9389757 C201.064449,39.8324054 201.075573,39.7204895 201.064758,39.6096182 C201.053944,39.4987468 201.021382,39.3910892 200.968964,39.292796 C200.916545,39.1945028 200.84529,39.1074981 200.759247,39.0367473 C200.673204,38.9659964 200.574066,38.912885 200.467499,38.8804477 C200.360931,38.8480104 200.249022,38.8368832 200.138153,38.8476977 C200.027284,38.8585123 199.919641,38.8910557 199.82135,38.9434757 C199.723059,38.9958956 199.636057,39.0671641 199.565308,39.153209 C199.494559,39.239254 199.441433,39.3383901 199.408997,39.4449604 C199.355681,39.6198446 199.360963,39.8073583 199.424011,39.9789738 C199.489011,40.2789811 199.848011,41.9460241 199.924011,42.8220455 C200.011011,43.786069 199.880013,45.1391033 198.713013,45.1391033 C197.302136,45.0910002 195.89533,44.9594288 194.5,44.7450889 C193.621137,44.488614 192.678768,44.5629661 191.850998,44.9540936 C190.850998,45.6081095 190.637,48.2251754 190.944,50.9782426 C188.805428,47.7041838 185.961686,44.9498945 182.621002,42.917049 C178.321002,40.3689868 176.180004,38.6989458 174.938004,37.3689133 C175.588004,36.9789038 176.215993,36.5958916 176.707993,36.283884 C177.786055,35.6863553 178.701411,34.8339332 179.3741,33.8010811 C180.046788,32.768229 180.456353,31.5863687 180.567001,30.3587402 C180.53369,27.9656143 180.333196,25.5777408 179.966995,23.212566 C180.004458,22.7857578 180.186572,22.3845501 180.483185,22.0753813 C180.779798,21.7662126 181.173112,21.56763 181.597992,21.5125243 C182.1021,21.5005902 182.605791,21.5499525 183.097992,21.6595272 C183.163147,21.6782742 183.23028,21.6893504 183.298004,21.692529 C183.421972,21.6990952 183.546011,21.6811799 183.663055,21.6398048 C183.7801,21.5984296 183.887847,21.5344061 183.980148,21.4513885 C184.07245,21.3683709 184.147497,21.2679848 184.201004,21.1559635 C184.254511,21.0439421 184.285426,20.922477 184.291992,20.7985062 C184.298558,20.6745353 184.280647,20.5504853 184.239273,20.4334384 C184.197899,20.3163914 184.133873,20.2086414 184.050858,20.1163377 C183.967842,20.0240341 183.867466,19.9489847 183.755447,19.8954766 C183.643429,19.8419686 183.521963,19.8110487 183.397995,19.8044824 C183.188694,19.7940904 182.98198,19.8543145 182.811005,19.9754881 L182.811005,19.9614878 C182.28073,20.3985238 181.665877,20.7212765 181.005005,20.9095089 C180.271005,20.9975111 179.918,20.0724891 180.791,19.5264758 C181.364,19.168467 181.875004,18.8354592 182.145004,18.6574549 C182.286306,18.5945846 182.40997,18.4979241 182.505112,18.375992 C182.600253,18.2540599 182.663951,18.1105997 182.690582,17.9582496 C182.717214,17.8058995 182.705957,17.6493379 182.657822,17.5023593 C182.609687,17.3553806 182.526145,17.222497 182.414551,17.1154174 C182.302957,17.0083379 182.166736,16.9303487 182.017899,16.888323 C181.869061,16.8462972 181.712182,16.8415252 181.561066,16.8744257 C181.409949,16.9073262 181.269233,16.9768893 181.151337,17.0769872 C181.03344,17.1770852 180.941975,17.304645 180.884995,17.4484258 C180.66701,17.9938478 180.403058,18.5197522 180.095993,19.0204627 C179.751993,19.4814739 178.896001,19.1004657 179.345001,18.1574427 C179.719001,17.3714235 179.985669,16.7507419 180.145004,16.2953978 C180.160324,16.2364448 180.170026,16.1761747 180.173996,16.1153931 C180.182298,15.8678048 180.093157,15.6268403 179.92572,15.4442685 C179.758284,15.2616966 179.525909,15.1520858 179.278534,15.1389899 C179.031159,15.125894 178.788529,15.2103559 178.602753,15.3742289 C178.416976,15.5381019 178.302888,15.7683112 178.285004,16.0153922 C178.282595,16.0822909 178.286607,16.1492671 178.296997,16.2153978 C178.343122,16.9480237 178.343122,17.6828225 178.296997,18.4154484 C178.196997,19.0764645 177.667994,19.4924758 177.205994,18.6564554 C176.843464,18.0420094 176.591328,17.3688293 176.460999,16.6674085 L176.447998,16.6744086 C176.406636,16.5288066 176.330841,16.3952991 176.227005,16.2851703 C176.123169,16.1750415 175.994342,16.0915247 175.851425,16.0416799 C175.708508,15.9918351 175.5557,15.9771253 175.405899,15.998794 C175.256099,16.0204628 175.113704,16.077875 174.990768,16.1661755 C174.867833,16.2544761 174.767959,16.3710723 174.699585,16.5061115 C174.631211,16.6411507 174.596355,16.7906652 174.597946,16.94202 C174.599537,17.0933748 174.637527,17.2421212 174.708725,17.375693 C174.779923,17.5092647 174.882239,17.6237373 175.007004,17.7094337 C175.530203,18.1756034 175.99342,18.7050097 176.386002,19.2854726 C176.566143,19.5547222 176.67321,19.866169 176.696701,20.1892727 C176.720193,20.5123764 176.659305,20.83604 176.520004,21.128516 C176.183004,21.5755269 175.247992,21.4675256 174.569992,20.9525131 L174.563995,20.9525131 C174.456863,20.8420217 174.324346,20.759399 174.177979,20.7118418 C174.031611,20.6642845 173.875843,20.6532324 173.724228,20.6796526 C173.572613,20.7060728 173.429746,20.7691637 173.30809,20.8634263 C173.186435,20.9576889 173.089676,21.0802668 173.02623,21.220483 C172.962784,21.3606992 172.934581,21.5142983 172.944077,21.6679083 C172.953572,21.8215183 173.000471,21.9704802 173.080704,22.101814 C173.160937,22.2331479 173.272065,22.3428719 173.404404,22.4214324 C173.536743,22.4999929 173.686282,22.545006 173.839996,22.5525506 C173.973011,22.5597858 174.106024,22.5382987 174.229996,22.4895493 C174.942791,22.2930119 175.698887,22.3213016 176.395004,22.5705526 C176.901619,22.7774809 177.337679,23.1263246 177.650787,23.5751542 C177.963896,24.0239839 178.140727,24.5536955 178.160004,25.1006126 C178.239004,26.676651 178.250992,30.3487406 177.110992,31.6077712 C176.782352,32.0257375 176.361938,32.3624645 175.882294,32.591888 C175.402649,32.8213114 174.876649,32.937275 174.345001,32.9308016 C173.134388,33.0224016 171.985243,33.5005833 171.067001,34.2948371 C170.890001,33.3798147 170.648004,32.2337861 170.313004,30.837752 C169.313004,26.6376498 166.662005,25.8666322 161.921005,23.2375682 C157.488005,20.7785081 156.462997,21.3905232 155.701997,22.0645397 C154.892997,22.6845548 154.095007,23.5715745 155.656007,28.3936922 C157.327007,33.5528179 157.577999,36.2938856 161.501999,38.0939295 C162.801999,38.6939442 163.885002,39.1489568 164.746002,39.4939652 C164.176512,39.9308422 163.701683,40.4788395 163.350327,41.1047299 C162.99897,41.7306202 162.778402,42.4213559 162.701996,43.135049 C162.683461,43.6661493 162.543066,44.1858791 162.291641,44.6540604 C162.040217,45.1222416 161.6845,45.5263401 161.251999,45.8351194 C159.940999,46.9141457 156.273004,46.7301375 154.703004,46.5781338 C154.157586,46.5329432 153.636783,46.3313394 153.203095,45.9975074 C152.769408,45.6636754 152.441251,45.2117989 152.257997,44.6960917 C152.042144,43.989142 152.049131,43.2328817 152.278001,42.5300385 C152.335087,42.4011705 152.362625,42.2611656 152.358598,42.1202766 C152.354571,41.9793877 152.319085,41.8411834 152.254731,41.7157868 C152.190377,41.5903901 152.098778,41.4809745 151.986665,41.395558 C151.874552,41.3101416 151.744761,41.2508858 151.606782,41.22213 C151.468803,41.1933743 151.32614,41.1958463 151.18924,41.2293667 C151.052341,41.2628871 150.924669,41.3266059 150.815583,41.4158565 C150.706498,41.5051071 150.618762,41.6176319 150.558793,41.7451836 C150.498824,41.8727352 150.468137,42.0120865 150.468995,42.1530304 C150.470756,42.3907694 150.563022,42.61891 150.727006,42.7910465 C151.210006,43.4910635 151.273006,44.4320867 150.811006,44.7490944 C150.512244,44.8745848 150.185979,44.9201924 149.864259,44.8814447 C149.542538,44.8426971 149.236423,44.7209264 148.975999,44.5280884 C148.415133,44.1084369 147.908287,43.621059 147.466996,43.0770489 C147.387267,42.9482707 147.277701,42.8405911 147.147553,42.7631222 C147.017405,42.6856533 146.870509,42.640677 146.7193,42.6319926 C146.568091,42.6233082 146.417016,42.6511733 146.278855,42.7132324 C146.140694,42.7752915 146.019516,42.8697194 145.925568,42.9885229 C145.831621,43.1073265 145.767662,43.2470107 145.739121,43.3957594 C145.71058,43.5445081 145.718294,43.697942 145.761597,43.8430817 C145.804901,43.9882214 145.882521,44.120798 145.9879,44.2295886 C146.09328,44.3383792 146.22332,44.4201808 146.367005,44.4680817 L146.358002,44.4810825 C147.051367,44.6432005 147.710982,44.9254687 148.306992,45.3151025 C149.118992,45.8151147 148.679993,46.3271306 148.013993,46.3921322 C147.27928,46.4055567 146.544461,46.3721564 145.813996,46.2921313 C145.748098,46.2791211 145.681162,46.2720886 145.613999,46.2711271 C145.368519,46.2804125 145.136276,46.3848308 144.966401,46.5622871 C144.796526,46.7397434 144.702338,46.9763213 144.703751,47.2219788 C144.705196,47.4676363 144.802133,47.7031049 144.974061,47.8785729 C145.145989,48.0540409 145.379429,48.1557431 145.625001,48.162172 C145.685855,48.161642 145.746498,48.1549442 145.806,48.1421749 C146.268663,48.0028403 146.901994,47.7648355 147.705994,47.4281606 C148.668994,47.0281508 149.011005,47.8971648 148.533005,48.2191726 C148.018542,48.5022929 147.480929,48.7411634 146.925996,48.9331946 C146.779865,48.9835955 146.648371,49.0691432 146.543076,49.1823156 C146.437781,49.2954881 146.361923,49.4328132 146.322175,49.5821972 C146.282427,49.7315813 146.280013,49.8884503 146.31514,50.0389878 C146.350268,50.1895254 146.421862,50.3291145 146.523621,50.4454766 C146.62538,50.5618388 146.754173,50.6514003 146.898682,50.7062786 C147.043192,50.7611569 147.198981,50.7796738 147.352326,50.7601892 C147.505671,50.7407046 147.651868,50.6838182 147.778062,50.5945434 C147.904255,50.5052686 148.006579,50.3863426 148.076005,50.2482291 C148.266005,49.9862227 148.621998,49.4922065 149.005998,48.936193 C149.592998,48.0891723 150.5,48.4861819 150.377,49.2141997 C150.158045,49.8658487 149.807064,50.4653478 149.345994,50.9752442 L149.360002,50.9752442 C149.268252,51.0944333 149.206311,51.2338186 149.179338,51.381794 C149.152364,51.5297695 149.161134,51.6820527 149.204926,51.8259501 C149.248719,51.9698474 149.326259,52.1011938 149.431092,52.2090542 C149.535925,52.3169146 149.665013,52.3981606 149.807603,52.446029 C149.950193,52.4938973 150.102161,52.5070006 150.25084,52.4842455 C150.399519,52.4614905 150.540607,52.4035368 150.662354,52.3152122 C150.784102,52.2268875 150.882985,52.1107519 150.950761,51.9764741 C151.018537,51.8421962 151.053251,51.6936676 151.052003,51.5432588 C151.051017,51.4759348 151.04297,51.4088953 151.028001,51.3432494 C150.941065,50.8462502 150.91521,50.3404904 150.951005,49.8372159 C151.025829,49.4160011 151.241912,49.032847 151.563661,48.750901 C151.885409,48.468955 152.293611,48.3050406 152.720994,48.2861756 C155.065764,48.7636369 157.44136,49.0747529 159.830003,49.2171981 C161.061662,49.1648316 162.261711,48.8113843 163.325134,48.1877845 C164.388558,47.5641848 165.282932,46.6894446 165.929993,45.640115 C166.344993,45.0491005 166.877003,44.2560831 167.397003,43.4700639 C168.492602,44.6202199 169.407033,45.9302031 170.108994,47.3551532 C171.722993,50.5092301 175.002006,57.5774074 184.949005,60.0964688 C182.033005,60.8534873 179.326997,62.1475174 179.087997,63.4185485 C179.045167,64.3327527 179.337851,65.2311037 179.910995,65.9446111 C180.644256,67.1519805 181.305738,68.4015066 181.891998,69.6866991 C182.338998,70.7627253 181.138996,71.4037453 180.214996,71.6927523 C179.374996,71.9557588 177.696003,72.2647657 177.397003,72.3187671 C177.262679,72.3249284 177.131737,72.3629432 177.014999,72.4296783 C176.898262,72.4964134 176.799067,72.5899554 176.725601,72.7025807 C176.652136,72.8152061 176.606512,72.943687 176.592484,73.077422 C176.578455,73.2111571 176.596434,73.3463068 176.644928,73.4717264 C176.693422,73.597146 176.771036,73.709237 176.871384,73.7987455 C176.971731,73.8882539 177.091924,73.952614 177.222046,73.9865171 C177.352168,74.0204202 177.488485,74.0228965 177.619751,73.9937347 C177.751016,73.9645729 177.873477,73.904614 177.977005,73.8188037 C177.977005,73.8188037 180.635005,71.6297462 181.268005,72.7427734 C181.550672,73.2634528 180.717339,74.0968064 178.768005,75.2428344 L178.778,75.2538362 C178.701759,75.2848024 178.630357,75.3265641 178.565994,75.3778398 C178.479978,75.448624 178.40875,75.5356587 178.356369,75.6339724 C178.303988,75.7322862 178.271483,75.8399531 178.260712,75.9508289 C178.238957,76.1747528 178.307045,76.3981481 178.449997,76.5718691 C178.592949,76.7455902 178.799061,76.8554044 179.02298,76.8771592 C179.246898,76.8989139 179.47028,76.8308245 179.643997,76.6878693 C179.772852,76.5824399 179.867519,76.4411382 179.916,76.2818612 C180.245,75.6328453 181.435996,73.4607908 182.367996,74.0068041 C183.095996,74.4334812 182.705331,75.3835039 181.195999,76.8568721 C181.107871,76.9269416 181.034575,77.0138587 180.980392,77.1125546 C180.92621,77.2112505 180.892225,77.3197527 180.880417,77.4317229 C180.868608,77.5436931 180.879219,77.6568959 180.911621,77.7647236 C180.944024,77.8725512 180.997564,77.9728469 181.069138,78.0597594 C181.140711,78.146672 181.22888,78.2184604 181.328491,78.2709386 C181.428102,78.3234169 181.537168,78.3555347 181.649323,78.3654157 C181.761477,78.3752967 181.874468,78.3627417 181.98172,78.3284885 C182.088972,78.2942353 182.188336,78.2389692 182.274002,78.1659098 C182.412045,78.0525894 182.51017,77.8980362 182.554001,77.7248971 L182.561996,77.7248971 C182.873326,75.7801823 183.316325,74.8641596 183.890991,74.976829 C184.465658,75.0894984 184.651327,75.7855146 184.447998,77.0648774 C184.392466,77.1932974 184.36965,77.3334895 184.381592,77.4728921 C184.393534,77.6122947 184.439853,77.7465606 184.516418,77.863664 C184.592984,77.9807673 184.697404,78.0770524 184.820313,78.1438985 C184.943221,78.2107445 185.080795,78.2460624 185.220703,78.2466918 C185.360612,78.2473212 185.498489,78.2132371 185.621994,78.1474996 C185.745499,78.0817622 185.850775,77.9864215 185.928391,77.8700118 C186.006006,77.7536021 186.053531,77.6197578 186.066727,77.4804683 C186.079922,77.3411787 186.058373,77.2007958 186.003998,77.0718813 L186.009995,77.0718813 C185.998995,77.055881 185.992995,77.0388769 185.981995,77.0228765 C185.976117,77.0098099 185.969448,76.9971244 185.962006,76.9848812 C184.974006,75.3598416 185.081998,73.6767998 185.113998,71.4307449 C185.120979,69.255784 184.728821,67.0979976 183.957001,65.0645847 C188.935001,64.8935805 190.911001,64.5855747 192.248001,63.4225464 C192.285001,63.3905456 192.320994,63.3565463 192.358994,63.3225455 C195.218007,66.5905268 198.850295,69.0900269 202.924011,70.5927194 C209.789011,72.9807777 216.761008,75.6068483 216.846008,80.8659764 C216.899008,84.2130579 214.830995,89.5591893 205.718994,91.1562283 C205.656874,91.1704248 205.596764,91.1922605 205.540009,91.2212323 C205.506058,91.2474927 205.478263,91.2808664 205.458588,91.319013 C205.438912,91.3571597 205.427832,91.399152 205.426117,91.44204 C205.424401,91.484928 205.432073,91.527668 205.448639,91.5672643 C205.465205,91.6068607 205.490258,91.642352 205.522003,91.6712403 C205.596032,91.7234865 205.680304,91.7594188 205.769257,91.7766582 C205.85821,91.7938976 205.949808,91.7920495 206.037994,91.7712412 C206.037994,91.7712412 218.855005,91.0522209 220.074005,81.3169838 C220.757005,75.3538386 216.133008,70.8057254 208.695007,67.0356335 C203.185007,64.2415654 202.295001,60.5874779 196.638,57.7824094 C196.728,57.5524038 196.813984,57.3214017 196.889984,57.0953962 C197.450984,55.4153553 196.978997,53.4713049 195.227997,48.809191 C197.401482,48.7421655 199.544243,48.2771287 201.549988,47.4371559 C203.613988,46.5471342 205.126989,45.8011148 207.006989,46.0921219 L207.049011,46.0921219 C207.06812,46.0934664 207.087122,46.0958067 207.105988,46.0991258 L207.105988,46.0921219 C207.246319,46.093711 207.384853,46.0604106 207.509125,45.9952033 C207.633397,45.929996 207.739528,45.8349258 207.817963,45.7185471 C207.896397,45.6021684 207.944694,45.4681249 207.958496,45.3284619 C207.972299,45.1887988 207.951171,45.0478987 207.897034,44.9184177 C207.842897,44.7889367 207.75742,44.6749329 207.648315,44.5866606 C207.539211,44.4983884 207.4099,44.4386101 207.271973,44.4126986 C207.134045,44.386787 206.991854,44.3955537 206.858154,44.4382119 C206.724454,44.4808701 206.603447,44.5560833 206.506012,44.6570893 C205.404669,45.3357749 204.691331,45.4307785 204.365997,44.9420999 C204.040664,44.4534213 204.716669,43.6930675 206.394012,42.6610384 L206.386993,42.6610384 C206.511876,42.5669267 206.608273,42.4400806 206.665497,42.2945515 C206.722721,42.1490225 206.738547,41.9904931 206.711212,41.8365249 C206.683878,41.6825567 206.614441,41.5391602 206.51062,41.4222234 C206.4068,41.3052866 206.272631,41.2193738 206.122986,41.1740026 L206.127991,41.1820061 Z" id="Path-522" fill="#FFFFFF" fill-rule="nonzero"/></g></svg>